<?xml version="1.0" encoding="UTF-8" standalone="no"?>
<svg width="50px" height="108px" viewBox="0 0 50 108" version="1.1" xmlns="http://www.w3.org/2000/svg" xmlns:xlink="http://www.w3.org/1999/xlink">
    <!-- Generator: Sketch 3.8.3 (29802) - http://www.bohemiancoding.com/sketch -->
    <title>Group 9</title>
    <desc>Created with Sketch.</desc>
    <defs>
        <rect id="path-1" x="0" y="0" width="48" height="64" rx="3"></rect>
        <mask id="mask-2" maskContentUnits="userSpaceOnUse" maskUnits="objectBoundingBox" x="0" y="0" width="48" height="64" fill="white">
            <use xlink:href="#path-1"></use>
        </mask>
        <linearGradient x1="14.03301%" y1="84.7329185%" x2="85.96699%" y2="15.2670815%" id="linearGradient-3">
            <stop stop-color="#F8F7F5" offset="0%"></stop>
            <stop stop-color="#AEC1D4" offset="100%"></stop>
        </linearGradient>
        <path d="M18.9999983,19 L45.9999994,19.0000013 L45.9999992,46.0000008 L18.9999983,19 Z M35.0000001,46.0000017 L5,46.0000011 L5.30999672,16.0000008 L35.0000001,46.0000017 Z" id="path-4"></path>
        <filter x="-50%" y="-50%" width="200%" height="200%" filterUnits="objectBoundingBox" id="filter-5">
            <feMorphology radius="1" operator="dilate" in="SourceAlpha" result="shadowSpreadOuter1"></feMorphology>
            <feOffset dx="0" dy="0" in="shadowSpreadOuter1" result="shadowOffsetOuter1"></feOffset>
            <feGaussianBlur stdDeviation="3.5" in="shadowOffsetOuter1" result="shadowBlurOuter1"></feGaussianBlur>
            <feComposite in="shadowBlurOuter1" in2="SourceAlpha" operator="out" result="shadowBlurOuter1"></feComposite>
            <feColorMatrix values="0 0 0 0 0   0 0 0 0 0   0 0 0 0 0  0 0 0 0.598222373 0" type="matrix" in="shadowBlurOuter1"></feColorMatrix>
        </filter>
    </defs>
    <g id="CI-stuff" stroke="none" stroke-width="1" fill="none" fill-rule="evenodd">
        <g id="Feedbase---alternative-1" transform="translate(-369.000000, -202.000000)">
            <g id="Group-9" transform="translate(369.000000, 202.000000)">
                <g id="Group-4" transform="translate(0.000000, 11.000000)">
                    <path d="M1.45996094,71.8847656 L1.45361328,71.8847656 C1.24625547,71.8847656 1.07063874,71.9588209 0.926757812,72.1069336 C0.778645093,72.2508145 0.704589844,72.4285471 0.704589844,72.6401367 L0.704589844,80.2509766 C0.704589844,80.4583344 0.778645093,80.6339511 0.926757812,80.777832 C1.07063874,80.9259448 1.24625547,81 1.45361328,81 C1.66097109,81 1.83870369,80.9259448 1.98681641,80.777832 C2.13492913,80.6339511 2.20898438,80.4583344 2.20898438,80.2509766 L2.20898438,77.1914062 L4.9765625,77.1914062 C5.18392031,77.1914062 5.36165291,77.1194669 5.50976562,76.9755859 C5.65787834,76.8274732 5.73193359,76.6497406 5.73193359,76.4423828 C5.73193359,76.235025 5.65787834,76.0572924 5.50976562,75.9091797 C5.36165291,75.7652988 5.18392031,75.6933594 4.9765625,75.6933594 L2.20898438,75.6933594 L2.20898438,73.3891602 L6.04296875,73.4018555 L6.04931641,73.4018555 C6.25667421,73.4018555 6.43229095,73.3278002 6.57617188,73.1796875 C6.72428459,73.0358066 6.79833984,72.8601898 6.79833984,72.652832 C6.79833984,72.4454742 6.72640046,72.2677416 6.58251953,72.1196289 C6.43440681,71.9715162 6.25667421,71.8974609 6.04931641,71.8974609 L1.45996094,71.8847656 Z M16.0532227,79.4956055 L16.0532227,77.1914062 L18.8208008,77.1914062 C19.0281586,77.1914062 19.2058912,77.1194669 19.3540039,76.9755859 C19.5021166,76.8274732 19.5761719,76.6497406 19.5761719,76.4423828 C19.5761719,76.235025 19.5021166,76.0572924 19.3540039,75.9091797 C19.2058912,75.7652988 19.0281586,75.6933594 18.8208008,75.6933594 L16.0532227,75.6933594 L16.0532227,73.3891602 L19.887207,73.4018555 L19.8935547,73.4018555 C20.1009125,73.4018555 20.2765292,73.3278002 20.4204102,73.1796875 C20.5685229,73.0358066 20.6425781,72.8601898 20.6425781,72.652832 C20.6425781,72.4454742 20.5706387,72.2677416 20.4267578,72.1196289 C20.2786451,71.9715162 20.1009125,71.8974609 19.8935547,71.8974609 L15.3041992,71.8847656 L15.2978516,71.8847656 C15.0904938,71.8847656 14.914877,71.9588209 14.7709961,72.1069336 C14.6228834,72.2508145 14.5488281,72.4285471 14.5488281,72.6401367 L14.5488281,80.2509766 C14.5488281,80.4583344 14.6228834,80.6339511 14.7709961,80.777832 C14.914877,80.9259448 15.0904938,81 15.2978516,81 L19.8935547,81 C20.1009125,81 20.2765292,80.9259448 20.4204102,80.777832 C20.5685229,80.6339511 20.6425781,80.4583344 20.6425781,80.2509766 C20.6425781,80.0436188 20.5685229,79.8658862 20.4204102,79.7177734 C20.2765292,79.5696607 20.1009125,79.4956055 19.8935547,79.4956055 L16.0532227,79.4956055 Z M30.0625,79.4956055 L30.0625,77.1914062 L32.8300781,77.1914062 C33.0374359,77.1914062 33.2151685,77.1194669 33.3632812,76.9755859 C33.511394,76.8274732 33.5854492,76.6497406 33.5854492,76.4423828 C33.5854492,76.235025 33.511394,76.0572924 33.3632812,75.9091797 C33.2151685,75.7652988 33.0374359,75.6933594 32.8300781,75.6933594 L30.0625,75.6933594 L30.0625,73.3891602 L33.8964844,73.4018555 L33.902832,73.4018555 C34.1101898,73.4018555 34.2858066,73.3278002 34.4296875,73.1796875 C34.5778002,73.0358066 34.6518555,72.8601898 34.6518555,72.652832 C34.6518555,72.4454742 34.5799161,72.2677416 34.4360352,72.1196289 C34.2879224,71.9715162 34.1101898,71.8974609 33.902832,71.8974609 L29.3134766,71.8847656 L29.3071289,71.8847656 C29.0997711,71.8847656 28.9241544,71.9588209 28.7802734,72.1069336 C28.6321607,72.2508145 28.5581055,72.4285471 28.5581055,72.6401367 L28.5581055,80.2509766 C28.5581055,80.4583344 28.6321607,80.6339511 28.7802734,80.777832 C28.9241544,80.9259448 29.0997711,81 29.3071289,81 L33.902832,81 C34.1101898,81 34.2858066,80.9259448 34.4296875,80.777832 C34.5778002,80.6339511 34.6518555,80.4583344 34.6518555,80.2509766 C34.6518555,80.0436188 34.5778002,79.8658862 34.4296875,79.7177734 C34.2858066,79.5696607 34.1101898,79.4956055 33.902832,79.4956055 L30.0625,79.4956055 Z M44.0717773,73.4018555 L45.2397461,73.4018555 C46.0776409,73.4018555 46.792803,73.7001923 47.3852539,74.296875 C47.9777048,74.8893259 48.2739258,75.6023721 48.2739258,76.4360352 C48.2739258,77.27393 47.9777048,77.9890921 47.3852539,78.581543 C46.792803,79.1739938 46.075525,79.4702148 45.2333984,79.4702148 L44.0717773,79.4892578 L44.0717773,73.4018555 Z M43.3291016,81 L45.2397461,80.9746094 C46.4923565,80.9746094 47.5629838,80.5302779 48.4516602,79.6416016 C49.3361047,78.757157 49.7783203,77.6886456 49.7783203,76.4360352 C49.7783203,75.1876565 49.3361047,74.1191451 48.4516602,73.2304688 C47.5629838,72.3460242 46.4923565,71.9038086 45.2397461,71.9038086 L43.3164062,71.9038086 C43.1090484,71.9038086 42.9334317,71.975748 42.7895508,72.1196289 C42.6414381,72.2677416 42.5673828,72.4454742 42.5673828,72.652832 L42.5673828,80.2509766 C42.5673828,80.4583344 42.6414381,80.636067 42.7895508,80.7841797 C42.9376635,80.9280606 43.1132802,81 43.3164062,81 L43.3291016,81 Z M1.43457031,92.8422852 L3.97998047,92.8422852 L4.10693359,92.8422852 L4.15771484,92.8422852 C4.69092063,92.8422852 5.14159972,93.0052067 5.50976562,93.3310547 C5.87793153,93.6526709 6.06201172,94.0504534 6.06201172,94.5244141 C6.06201172,94.9983748 5.87581566,95.4025048 5.50341797,95.7368164 C5.12678848,96.071128 4.67399353,96.2382812 4.14501953,96.2382812 L1.43457031,96.2382812 L1.43457031,92.8422852 Z M1.43457031,88.6655273 L3.97998047,88.652832 C4.51741805,88.652832 4.970213,88.8136377 5.33837891,89.1352539 C5.70654481,89.4611019 5.890625,89.8588844 5.890625,90.3286133 C5.890625,90.8110376 5.70442895,91.2236311 5.33203125,91.5664062 C4.95963355,91.9091814 4.50895447,92.0805664 3.97998047,92.0805664 L1.43457031,92.0869141 L1.43457031,88.6655273 Z M4.14501953,97 C4.88558313,97 5.51611068,96.7566756 6.03662109,96.2700195 C6.5613633,95.7875952 6.82373047,95.2057326 6.82373047,94.5244141 C6.82373047,94.0716123 6.70312621,93.6547871 6.46191406,93.2739258 C6.22493371,92.9015281 5.90120648,92.6095388 5.49072266,92.3979492 C5.85042498,92.1694325 6.13183492,91.8753273 6.33496094,91.515625 C6.54655054,91.1474591 6.65234375,90.7517925 6.65234375,90.3286133 C6.65234375,89.6472948 6.39420831,89.0696638 5.87792969,88.5957031 C5.36165106,88.1259742 4.72900765,87.8911133 3.97998047,87.8911133 L1.05371094,87.9038086 C0.947916138,87.9038086 0.856933975,87.9418942 0.780761719,88.0180664 C0.708821255,88.0900069 0.672851562,88.1788732 0.672851562,88.284668 L0.672851562,96.6191406 C0.672851562,96.7249354 0.710937119,96.8138017 0.787109375,96.8857422 C0.859049839,96.9619144 0.947916138,97 1.05371094,97 L4.14501953,97 Z M16.3261719,94.1118164 L18.3320312,89.2749023 L20.3378906,94.1118164 L16.3261719,94.1118164 Z M14.8789062,97 C15.0481779,97 15.1645505,96.921713 15.2280273,96.7651367 L16.0151367,94.8735352 L20.6489258,94.8735352 L21.4360352,96.7651367 C21.499512,96.921713 21.6158846,97 21.7851562,97 C21.8359378,97 21.8846026,96.9894207 21.9311523,96.9682617 C22.0284836,96.9301756 22.0961912,96.8624679 22.1342773,96.7651367 C22.1765953,96.6678055 22.1765953,96.5704757 22.1342773,96.4731445 L21.2519531,94.3466797 L21.2519531,94.340332 L18.6811523,88.1386719 C18.6726888,88.1175129 18.6621094,88.0942384 18.6494141,88.0688477 C18.6494141,88.0730794 18.6409506,88.064616 18.6240234,88.043457 C18.6113281,88.0265299 18.6028646,88.0159505 18.5986328,88.0117188 C18.594401,88.0117188 18.5838217,88.0032553 18.5668945,87.9863281 C18.5499674,87.9736327 18.5415039,87.9672852 18.5415039,87.9672852 C18.499186,87.9376626 18.452637,87.9186198 18.4018555,87.9101562 C18.4060873,87.9101562 18.3955079,87.9101562 18.3701172,87.9101562 C18.3489582,87.9059245 18.336263,87.9038086 18.3320312,87.9038086 C18.3277995,87.9038086 18.3129884,87.9059245 18.2875977,87.9101562 L18.2558594,87.9101562 C18.2093097,87.9186198 18.1648765,87.9376626 18.1225586,87.9672852 C18.1267904,87.9630534 18.1183269,87.969401 18.097168,87.9863281 C18.0802408,87.9990235 18.0696615,88.007487 18.0654297,88.0117188 C18.0611979,88.0159505 18.0527344,88.0265299 18.0400391,88.043457 C18.0231119,88.0603842 18.0146484,88.0688477 18.0146484,88.0688477 C18.0019531,88.0942384 17.9913737,88.1175129 17.9829102,88.1386719 L15.4121094,94.340332 L15.4121094,94.3466797 L14.5297852,96.4731445 C14.4874672,96.5704757 14.4874672,96.6678055 14.5297852,96.7651367 C14.5678713,96.8624679 14.6355789,96.9301756 14.7329102,96.9682617 C14.7794599,96.9894207 14.8281247,97 14.8789062,97 L14.8789062,97 Z M30.8051758,96.5874023 C30.1746388,96.2530908 29.7768563,95.7706737 29.6118164,95.1401367 C29.5864257,95.0428055 29.5991208,94.9475916 29.6499023,94.8544922 C29.7049156,94.7656246 29.7832026,94.7084962 29.8847656,94.6831055 C29.9820968,94.6577147 30.0773107,94.6704099 30.1704102,94.7211914 C30.2592778,94.7762047 30.3164061,94.8523758 30.3417969,94.949707 C30.4560553,95.3898134 30.7522763,95.7262358 31.2304688,95.9589844 C31.6282572,96.149415 32.083168,96.2446289 32.5952148,96.2446289 C33.1495796,96.2446289 33.6256491,96.0668963 34.0234375,95.7114258 C34.4212259,95.3559553 34.6328124,94.9222031 34.6582031,94.4101562 C34.6751303,94.0419903 34.5481784,93.7161473 34.2773438,93.4326172 C33.9091778,93.0390605 33.3230834,92.8359376 32.519043,92.8232422 C32.4132482,92.8232422 32.3243819,92.7851566 32.2524414,92.7089844 C32.1805009,92.6328121 32.1445312,92.5439458 32.1445312,92.4423828 C32.148763,92.336588 32.1889645,92.2477217 32.2651367,92.1757812 C32.3370772,92.1038408 32.4259435,92.0678711 32.5317383,92.0678711 C33.5473684,92.0847983 34.3133112,92.3683241 34.8295898,92.918457 C35.2443055,93.3543316 35.4368491,93.862139 35.4072266,94.4418945 C35.377604,95.1570674 35.0898465,95.7622046 34.5439453,96.2573242 C34.0022759,96.7524439 33.3527056,97 32.5952148,97 C31.9265917,97 31.329918,96.8624688 30.8051758,96.5874023 L30.8051758,96.5874023 Z M32.480957,92.8232422 C31.465327,92.8105468 30.6993841,92.5291369 30.1831055,91.9790039 C29.7683899,91.5388975 29.5737303,91.0289743 29.5991211,90.4492188 C29.6329754,89.7340459 29.9228488,89.1289087 30.46875,88.6337891 C31.0104194,88.1386694 31.6599897,87.8911133 32.4174805,87.8911133 C33.0861036,87.8911133 33.6827773,88.0307603 34.2075195,88.3100586 C34.8380565,88.6401384 35.235839,89.1204396 35.4008789,89.7509766 C35.4262697,89.8525396 35.4135745,89.9477535 35.362793,90.0366211 C35.3077797,90.1254887 35.2294927,90.1826171 35.1279297,90.2080078 C35.0263667,90.2376304 34.9311528,90.2249352 34.8422852,90.1699219 C34.7534175,90.1191404 34.6962892,90.0429693 34.6708984,89.9414062 C34.5566401,89.5012999 34.2604191,89.1669933 33.7822266,88.9384766 C33.3844381,88.7438141 32.9295273,88.6464844 32.4174805,88.6464844 C31.8631157,88.6464844 31.3870463,88.824217 30.9892578,89.1796875 C30.5914694,89.535158 30.3798829,89.9710261 30.3544922,90.4873047 C30.337565,90.8512388 30.4645169,91.174966 30.7353516,91.4584961 C31.1035175,91.8520527 31.6896119,92.0551757 32.4936523,92.0678711 C32.5994471,92.0721029 32.6883134,92.1101884 32.7602539,92.1821289 C32.8321944,92.2583012 32.8681641,92.3492833 32.8681641,92.4550781 C32.8639323,92.5566411 32.8258467,92.6433916 32.7539062,92.715332 C32.677734,92.7872725 32.5888677,92.8232422 32.4873047,92.8232422 L32.480957,92.8232422 Z M48.9467773,97 C49.0525721,97 49.1414384,96.9619144 49.2133789,96.8857422 C49.2895512,96.8138017 49.3276367,96.7249354 49.3276367,96.6191406 C49.3276367,96.5133458 49.2895512,96.4244795 49.2133789,96.3525391 C49.1414384,96.2763668 49.0525721,96.2382812 48.9467773,96.2382812 L44.2875977,96.2382812 L44.2875977,92.8232422 L47.7724609,92.8232422 C47.8782557,92.8232422 47.967122,92.7851566 48.0390625,92.7089844 C48.1152348,92.6370439 48.1533203,92.5481776 48.1533203,92.4423828 C48.1533203,92.336588 48.1152348,92.2477217 48.0390625,92.1757812 C47.967122,92.099609 47.8782557,92.0615234 47.7724609,92.0615234 L44.2875977,92.0615234 L44.2875977,88.6464844 L48.9467773,88.6591797 C49.0525721,88.6591797 49.1414384,88.62321 49.2133789,88.5512695 C49.2895512,88.4750973 49.3276367,88.3841151 49.3276367,88.2783203 C49.3276367,88.1767573 49.2895512,88.087891 49.2133789,88.0117188 C49.1414384,87.9355465 49.0525721,87.8974609 48.9467773,87.8974609 L43.9067383,87.8847656 C43.8051753,87.8805338 43.716309,87.9186194 43.6401367,87.9990234 C43.5639645,88.0709639 43.5258789,88.1598302 43.5258789,88.265625 L43.5258789,96.6191406 C43.5258789,96.7249354 43.5639645,96.8138017 43.6401367,96.8857422 C43.7120772,96.9619144 43.8009435,97 43.9067383,97 L48.9467773,97 Z" id="FEED" fill="#403888"></path>
                    <g id="Group-7" transform="translate(26.000000, 20.500000) rotate(-270.000000) translate(-26.000000, -20.500000) translate(5.500000, 5.500000)">
                        <g id="Group-6" transform="translate(-0.000000, 0.000000)">
                            <g id="Group-5"></g>
                        </g>
                    </g>
                </g>
                <g id="Group-8" transform="translate(1.000000, 0.000000)">
                    <use id="Rectangle-11" stroke="#6660A0" mask="url(#mask-2)" stroke-width="4" fill="#403888" xlink:href="#path-1"></use>
                    <g id="Combined-Shape" transform="translate(25.500000, 31.000001) rotate(-270.000000) translate(-25.500000, -31.000001) ">
                        <use fill="black" fill-opacity="1" filter="url(#filter-5)" xlink:href="#path-4"></use>
                        <use stroke="#6660A0" stroke-width="2" stroke-linecap="round" stroke-linejoin="round" fill="url(#linearGradient-3)" fill-rule="evenodd" xlink:href="#path-4"></use>
                    </g>
                </g>
            </g>
        </g>
    </g>
</svg>